<svg width="225" height="65" viewBox="0 0 225 65" fill="none" xmlns="http://www.w3.org/2000/svg">
<path d="M223.75 57.5079C223.75 60.9718 220.886 63.7776 217.343 63.7776H7.66554C4.12438 63.7776 1.25 60.9718 1.25 57.5079V7.50843C1.25 4.04614 4.12438 1.23047 7.66554 1.23047H217.341C220.886 1.23047 223.748 4.04614 223.748 7.50843L223.75 57.5079Z" fill="white"/>
<path d="M216.667 1.30593C220.525 1.30593 223.665 4.36703 223.665 8.12891V56.8789C223.665 60.6408 220.525 63.7019 216.667 63.7019H8.33333C4.475 63.7019 1.33542 60.6408 1.33542 56.8789V8.12891C1.33542 4.36703 4.475 1.30593 8.33333 1.30593H216.667ZM216.667 0.00390625H8.33333C3.75208 0.00390625 0 3.66219 0 8.12891V56.8789C0 61.3456 3.75208 65.0039 8.33333 65.0039H216.667C221.248 65.0039 225 61.3456 225 56.8789V8.12891C225 3.66219 221.248 0.00390625 216.667 0.00390625Z" fill="#E4E4E4"/>
<path d="M50.2133 32.1528C50.165 26.9154 54.6117 24.3674 54.815 24.2488C52.2967 20.6689 48.3933 20.1798 47.0217 20.1408C43.7433 19.8044 40.5633 22.0534 38.8933 22.0534C37.19 22.0534 34.6183 20.1733 31.8467 20.2286C28.28 20.2822 24.9433 22.2956 23.1133 25.4221C19.3367 31.7969 22.1533 41.1651 25.7717 46.3179C27.5817 48.8416 29.6967 51.6593 32.465 51.5602C35.1733 51.4513 36.185 49.8767 39.4533 49.8767C42.6917 49.8767 43.6417 51.5602 46.465 51.4968C49.3717 51.4513 51.2016 48.9618 52.9483 46.4154C55.04 43.5229 55.88 40.6743 55.9133 40.5281C55.845 40.5053 50.2683 38.4302 50.2133 32.1528Z" fill="#292D32"/>
<path d="M44.88 16.7511C46.3367 14.9749 47.3333 12.5586 47.0567 10.1064C44.9483 10.1974 42.3117 11.5283 40.7933 13.2654C39.45 14.7962 38.25 17.3052 38.56 19.6647C40.9283 19.8369 43.36 18.4996 44.88 16.7511Z" fill="#292D32"/>
<path d="M81.75 16.2688C81.75 18.1814 81.1617 19.6212 79.9867 20.588C78.8983 21.4802 77.3517 21.927 75.3483 21.927C74.355 21.927 73.505 21.8848 72.7933 21.8003V11.3499C73.7217 11.2037 74.7217 11.1289 75.8017 11.1289C77.71 11.1289 79.1483 11.5335 80.1183 12.3428C81.205 13.2577 81.75 14.5658 81.75 16.2688ZM79.9083 16.3159C79.9083 15.076 79.5717 14.1254 78.8983 13.4624C78.225 12.801 77.2417 12.4695 75.9467 12.4695C75.3967 12.4695 74.9283 12.5053 74.54 12.58V20.5247C74.755 20.5572 75.1483 20.5718 75.72 20.5718C77.0567 20.5718 78.0883 20.2094 78.815 19.4847C79.5417 18.7599 79.9083 17.7037 79.9083 16.3159Z" fill="#292D32"/>
<path d="M91.5151 17.9384C91.5151 19.1165 91.1701 20.0817 90.4801 20.839C89.7567 21.6174 88.7984 22.0057 87.6017 22.0057C86.4484 22.0057 85.5301 21.6336 84.8451 20.8861C84.1617 20.1402 83.8201 19.1994 83.8201 18.0651C83.8201 16.8789 84.1717 15.9055 84.8784 15.1499C85.5851 14.3942 86.5351 14.0156 87.7317 14.0156C88.8851 14.0156 89.8117 14.3877 90.5134 15.1336C91.1801 15.8584 91.5151 16.7944 91.5151 17.9384ZM89.7034 17.9936C89.7034 17.2867 89.5467 16.6806 89.2351 16.1752C88.8684 15.5642 88.3467 15.2587 87.6684 15.2587C86.9667 15.2587 86.4334 15.5642 86.0667 16.1752C85.7534 16.6806 85.5984 17.2965 85.5984 18.0245C85.5984 18.7314 85.7551 19.3375 86.0667 19.8429C86.4451 20.4539 86.9717 20.7594 87.6517 20.7594C88.3184 20.7594 88.8417 20.449 89.2184 19.8266C89.5417 19.3115 89.7034 18.7005 89.7034 17.9936Z" fill="#292D32"/>
<path d="M104.608 14.1719L102.15 21.8321H100.55L99.5316 18.5057C99.2733 17.6754 99.0633 16.8499 98.9 16.0309H98.8683C98.7166 16.8726 98.5066 17.6965 98.2366 18.5057L97.155 21.8321H95.5366L93.225 14.1719H95.02L95.9083 17.8135C96.1233 18.6748 96.3 19.4954 96.4416 20.2721H96.4733C96.6033 19.6319 96.8183 18.8161 97.1216 17.8298L98.2366 14.1735H99.66L100.728 17.7517C100.987 18.6244 101.197 19.4645 101.358 20.2738H101.407C101.525 19.4856 101.703 18.6455 101.94 17.7517L102.893 14.1735H104.608V14.1719Z" fill="#292D32"/>
<path d="M113.663 21.8328H111.917V17.4453C111.917 16.0933 111.39 15.4173 110.333 15.4173C109.815 15.4173 109.397 15.6026 109.072 15.9747C108.75 16.3468 108.587 16.7856 108.587 17.2877V21.8312H106.84V16.3615C106.84 15.6887 106.818 14.9591 106.777 14.1693H108.312L108.393 15.367H108.442C108.645 14.9948 108.948 14.6877 109.347 14.4423C109.82 14.1563 110.35 14.0117 110.93 14.0117C111.663 14.0117 112.273 14.2425 112.758 14.7056C113.362 15.2727 113.663 16.1193 113.663 17.2438V21.8328Z" fill="#292D32"/>
<path d="M118.48 21.8324H116.735V10.6572H118.48V21.8324Z" fill="#292D32"/>
<path d="M128.763 17.9384C128.763 19.1165 128.418 20.0817 127.728 20.839C127.005 21.6174 126.045 22.0057 124.85 22.0057C123.695 22.0057 122.777 21.6336 122.093 20.8861C121.41 20.1402 121.068 19.1994 121.068 18.0651C121.068 16.8789 121.42 15.9055 122.127 15.1499C122.833 14.3942 123.783 14.0156 124.978 14.0156C126.133 14.0156 127.058 14.3877 127.762 15.1336C128.428 15.8584 128.763 16.7944 128.763 17.9384ZM126.95 17.9936C126.95 17.2867 126.793 16.6806 126.482 16.1752C126.117 15.5642 125.593 15.2587 124.917 15.2587C124.213 15.2587 123.68 15.5642 123.315 16.1752C123.002 16.6806 122.847 17.2965 122.847 18.0245C122.847 18.7314 123.003 19.3375 123.315 19.8429C123.693 20.4539 124.22 20.7594 124.9 20.7594C125.567 20.7594 126.088 20.449 126.465 19.8266C126.79 19.3115 126.95 18.7005 126.95 17.9936Z" fill="#292D32"/>
<path d="M137.217 21.8319H135.648L135.518 20.9495H135.47C134.933 21.6531 134.168 22.0057 133.175 22.0057C132.433 22.0057 131.833 21.7734 131.382 21.3119C130.972 20.8926 130.767 20.371 130.767 19.7519C130.767 18.8159 131.167 18.1025 131.972 17.6085C132.775 17.1145 133.905 16.8724 135.36 16.8837V16.7407C135.36 15.7316 134.817 15.2279 133.728 15.2279C132.953 15.2279 132.27 15.418 131.68 15.795L131.325 14.677C132.055 14.2366 132.957 14.0156 134.02 14.0156C136.073 14.0156 137.103 15.0719 137.103 17.1844V20.0054C137.103 20.7707 137.142 21.3801 137.217 21.8319ZM135.403 19.1994V18.018C133.477 17.9855 132.513 18.5006 132.513 19.5617C132.513 19.9615 132.623 20.2605 132.848 20.4604C133.073 20.6602 133.36 20.7594 133.702 20.7594C134.085 20.7594 134.443 20.6407 134.77 20.4051C135.098 20.1679 135.3 19.8672 135.375 19.4984C135.393 19.4155 135.403 19.3147 135.403 19.1994Z" fill="#292D32"/>
<path d="M147.142 21.8323H145.592L145.51 20.6022H145.462C144.967 21.5382 144.123 22.0062 142.938 22.0062C141.992 22.0062 141.203 21.6439 140.578 20.9191C139.953 20.1944 139.642 19.2535 139.642 18.0981C139.642 16.8582 139.98 15.854 140.66 15.087C141.318 14.372 142.125 14.0145 143.085 14.0145C144.14 14.0145 144.878 14.3606 145.298 15.0545H145.332V10.6572H147.08V19.7686C147.08 20.5145 147.1 21.2018 147.142 21.8323ZM145.332 18.6019V17.3246C145.332 17.1036 145.315 16.9249 145.283 16.7884C145.185 16.3789 144.973 16.0344 144.652 15.7565C144.327 15.4786 143.935 15.3389 143.483 15.3389C142.832 15.3389 142.322 15.5907 141.947 16.0961C141.575 16.6015 141.387 17.2466 141.387 18.0347C141.387 18.792 141.565 19.4062 141.923 19.8791C142.302 20.3829 142.812 20.6347 143.45 20.6347C144.023 20.6347 144.482 20.4251 144.83 20.0042C145.167 19.6158 145.332 19.1479 145.332 18.6019Z" fill="#292D32"/>
<path d="M162.08 17.9384C162.08 19.1165 161.735 20.0817 161.045 20.839C160.322 21.6174 159.365 22.0057 158.167 22.0057C157.015 22.0057 156.097 21.6336 155.41 20.8861C154.727 20.1402 154.385 19.1994 154.385 18.0651C154.385 16.8789 154.737 15.9055 155.443 15.1499C156.15 14.3942 157.1 14.0156 158.298 14.0156C159.45 14.0156 160.378 14.3877 161.078 15.1336C161.745 15.8584 162.08 16.7944 162.08 17.9384ZM160.27 17.9936C160.27 17.2867 160.113 16.6806 159.802 16.1752C159.433 15.5642 158.913 15.2587 158.233 15.2587C157.533 15.2587 157 15.5642 156.632 16.1752C156.318 16.6806 156.163 17.2965 156.163 18.0245C156.163 18.7314 156.32 19.3375 156.632 19.8429C157.01 20.4539 157.537 20.7594 158.217 20.7594C158.883 20.7594 159.408 20.449 159.785 19.8266C160.107 19.3115 160.27 18.7005 160.27 17.9936Z" fill="#292D32"/>
<path d="M171.472 21.8328H169.727V17.4453C169.727 16.0933 169.2 15.4173 168.142 15.4173C167.623 15.4173 167.205 15.6026 166.882 15.9747C166.558 16.3468 166.397 16.7856 166.397 17.2877V21.8312H164.648V16.3615C164.648 15.6887 164.628 14.9591 164.587 14.1693H166.12L166.202 15.367H166.25C166.455 14.9948 166.758 14.6877 167.155 14.4423C167.63 14.1563 168.158 14.0117 168.74 14.0117C169.472 14.0117 170.082 14.2425 170.567 14.7056C171.172 15.2727 171.472 16.1193 171.472 17.2438V21.8328Z" fill="#292D32"/>
<path d="M183.227 15.448H181.303V19.1693C181.303 20.115 181.645 20.5879 182.322 20.5879C182.635 20.5879 182.895 20.5619 183.1 20.5083L183.145 21.8001C182.8 21.9269 182.347 21.9903 181.788 21.9903C181.098 21.9903 180.562 21.7855 180.173 21.376C179.783 20.9665 179.59 20.2775 179.59 19.3106V15.448H178.442V14.1724H179.59V12.7684L181.302 12.2646V14.1708H183.225V15.448H183.227Z" fill="#292D32"/>
<path d="M192.473 21.8324H190.725V17.4774C190.725 16.1042 190.198 15.4169 189.143 15.4169C188.333 15.4169 187.78 15.815 187.477 16.6112C187.425 16.7786 187.395 16.9834 187.395 17.2239V21.8307H185.65V10.6572H187.395V15.2739H187.428C187.978 14.4337 188.767 14.0145 189.788 14.0145C190.512 14.0145 191.11 14.2452 191.585 14.7084C192.177 15.2852 192.473 16.1432 192.473 17.2775V21.8324Z" fill="#292D32"/>
<path d="M202.012 17.6403C202.012 17.9458 201.988 18.2026 201.947 18.4122H196.708C196.732 19.1695 196.982 19.7463 197.467 20.1461C197.91 20.5036 198.482 20.6823 199.182 20.6823C199.957 20.6823 200.663 20.5621 201.3 20.32L201.573 21.503C200.828 21.8182 199.952 21.9758 198.937 21.9758C197.72 21.9758 196.762 21.6265 196.068 20.9277C195.372 20.229 195.027 19.2913 195.027 18.1148C195.027 16.9595 195.348 15.9975 195.997 15.2305C196.673 14.4115 197.588 14.002 198.743 14.002C199.873 14.002 200.732 14.4115 201.312 15.2305C201.78 15.8805 202.012 16.6848 202.012 17.6403ZM200.345 17.2C200.358 16.6946 200.243 16.2591 200.007 15.8918C199.703 15.419 199.242 15.1817 198.617 15.1817C198.047 15.1817 197.582 15.4125 197.227 15.8756C196.937 16.2445 196.765 16.6848 196.708 17.2H200.345Z" fill="#292D32"/>
<path d="M89.4083 51.1978H85.6233L83.55 44.8456H76.3433L74.3683 51.1978H70.6833L77.8233 29.5723H82.2333L89.4083 51.1978ZM82.925 42.1806L81.05 36.5338C80.8517 35.9569 80.48 34.5984 79.9317 32.4599H79.865C79.6467 33.3796 79.295 34.7381 78.8117 36.5338L76.97 42.1806H82.925Z" fill="#292D32"/>
<path d="M107.77 43.2093C107.77 45.8613 107.035 47.9576 105.565 49.4964C104.248 50.8663 102.613 51.5504 100.662 51.5504C98.555 51.5504 97.0417 50.8127 96.12 49.3372H96.0533V57.5516H92.5V40.7377C92.5 39.0704 92.455 37.3593 92.3683 35.6043H95.4933L95.6917 38.0759H95.7583C96.9433 36.2137 98.7417 35.2842 101.155 35.2842C103.042 35.2842 104.617 36.0106 105.877 37.4649C107.14 38.9209 107.77 40.8352 107.77 43.2093ZM104.15 43.3361C104.15 41.8183 103.8 40.5671 103.097 39.5823C102.328 38.5553 101.297 38.0418 100.003 38.0418C99.1267 38.0418 98.33 38.3278 97.6183 38.8917C96.905 39.4604 96.4383 40.2031 96.22 41.1228C96.11 41.5518 96.055 41.9028 96.055 42.1791V44.7791C96.055 45.9133 96.4117 46.8704 97.125 47.6521C97.8383 48.4337 98.765 48.8237 99.905 48.8237C101.243 48.8237 102.285 48.3199 103.03 47.3157C103.777 46.3098 104.15 44.9838 104.15 43.3361Z" fill="#292D32"/>
<path d="M126.165 43.2093C126.165 45.8613 125.43 47.9576 123.958 49.4964C122.643 50.8663 121.008 51.5504 119.057 51.5504C116.95 51.5504 115.437 50.8127 114.517 49.3372H114.45V57.5516H110.897V40.7377C110.897 39.0704 110.852 37.3593 110.765 35.6043H113.89L114.088 38.0759H114.155C115.338 36.2137 117.137 35.2842 119.552 35.2842C121.437 35.2842 123.012 36.0106 124.275 37.4649C125.533 38.9209 126.165 40.8352 126.165 43.2093ZM122.545 43.3361C122.545 41.8183 122.193 40.5671 121.49 39.5823C120.722 38.5553 119.693 38.0418 118.398 38.0418C117.52 38.0418 116.725 38.3278 116.012 38.8917C115.298 39.4604 114.833 40.2031 114.615 41.1228C114.507 41.5518 114.45 41.9028 114.45 42.1791V44.7791C114.45 45.9133 114.807 46.8704 115.517 47.6521C116.23 48.4321 117.157 48.8237 118.3 48.8237C119.638 48.8237 120.68 48.3199 121.425 47.3157C122.172 46.3098 122.545 44.9838 122.545 43.3361Z" fill="#292D32"/>
<path d="M146.732 45.1337C146.732 46.9732 146.077 48.4699 144.762 49.6252C143.317 50.8879 141.305 51.5184 138.72 51.5184C136.333 51.5184 134.42 51.0699 132.972 50.1712L133.795 47.2836C135.355 48.2034 137.067 48.6649 138.932 48.6649C140.27 48.6649 141.312 48.3691 142.06 47.7809C142.805 47.1926 143.177 46.4029 143.177 45.4181C143.177 44.5406 142.87 43.8012 142.255 43.2016C141.643 42.602 140.622 42.0446 139.195 41.5295C135.312 40.1174 133.372 38.0487 133.372 35.3285C133.372 33.5507 134.052 32.0931 135.413 30.9589C136.77 29.823 138.58 29.2559 140.843 29.2559C142.862 29.2559 144.538 29.5987 145.877 30.2829L144.988 33.1071C143.738 32.4441 142.325 32.1126 140.743 32.1126C139.493 32.1126 138.517 32.4132 137.817 33.0112C137.225 33.5459 136.928 34.1975 136.928 34.9694C136.928 35.8241 137.267 36.531 137.947 37.0867C138.538 37.6002 139.613 38.156 141.173 38.7556C143.082 39.5047 144.483 40.3806 145.385 41.3849C146.283 42.3859 146.732 43.6387 146.732 45.1337Z" fill="#292D32"/>
<path d="M158.48 38.2051H154.563V45.776C154.563 47.7016 155.253 48.6636 156.637 48.6636C157.272 48.6636 157.798 48.61 158.215 48.5027L158.313 51.1336C157.613 51.3887 156.692 51.5171 155.55 51.5171C154.147 51.5171 153.05 51.0995 152.258 50.2659C151.47 49.4306 151.073 48.0299 151.073 46.062V38.2019H148.74V35.6019H151.073V32.7467L154.563 31.7197V35.6019H158.48V38.2051Z" fill="#292D32"/>
<path d="M176.152 43.273C176.152 45.6699 175.448 47.6378 174.045 49.1766C172.573 50.761 170.62 51.5508 168.185 51.5508C165.838 51.5508 163.97 50.7919 162.577 49.2741C161.183 47.7564 160.487 45.8405 160.487 43.5314C160.487 41.115 161.203 39.1358 162.642 37.5969C164.077 36.0564 166.013 35.2861 168.448 35.2861C170.795 35.2861 172.683 36.045 174.108 37.5644C175.472 39.0383 176.152 40.9411 176.152 43.273ZM172.465 43.3851C172.465 41.947 172.15 40.7136 171.512 39.685C170.767 38.4403 169.702 37.8195 168.322 37.8195C166.893 37.8195 165.808 38.4419 165.063 39.685C164.425 40.7153 164.11 41.9681 164.11 43.4501C164.11 44.8883 164.425 46.1216 165.063 47.1486C165.832 48.3934 166.905 49.0141 168.29 49.0141C169.647 49.0141 170.712 48.3804 171.48 47.1161C172.135 46.068 172.465 44.8216 172.465 43.3851Z" fill="#292D32"/>
<path d="M187.702 38.6512C187.35 38.5878 186.975 38.5553 186.582 38.5553C185.332 38.5553 184.365 39.0152 183.685 39.9366C183.093 40.7491 182.797 41.7761 182.797 43.0159V51.1978H179.245L179.278 40.5151C179.278 38.7178 179.233 37.0814 179.145 35.6059H182.24L182.37 38.5894H182.468C182.843 37.5641 183.435 36.7386 184.245 36.1194C185.037 35.5621 185.892 35.2842 186.813 35.2842C187.142 35.2842 187.438 35.3069 187.702 35.3476V38.6512Z" fill="#292D32"/>
<path d="M203.593 42.6633C203.593 43.284 203.552 43.8073 203.463 44.2346H192.803C192.845 45.7751 193.36 46.9533 194.35 47.7658C195.248 48.4921 196.41 48.8561 197.837 48.8561C199.415 48.8561 200.855 48.6108 202.15 48.1184L202.707 50.5234C201.193 51.1669 199.407 51.487 197.345 51.487C194.865 51.487 192.918 50.7753 191.502 49.3534C190.088 47.9315 189.38 46.0221 189.38 43.6269C189.38 41.2755 190.038 39.3174 191.357 37.7558C192.737 36.0885 194.602 35.2549 196.948 35.2549C199.253 35.2549 200.998 36.0885 202.183 37.7558C203.122 39.0801 203.593 40.7181 203.593 42.6633ZM200.205 41.7646C200.228 40.7376 199.997 39.8504 199.515 39.1013C198.9 38.1376 197.955 37.6566 196.683 37.6566C195.522 37.6566 194.577 38.1263 193.855 39.0688C193.263 39.8179 192.912 40.7165 192.803 41.763H200.205V41.7646Z" fill="#292D32"/>
</svg>
