<svg width="225" height="65" viewBox="0 0 225 65" fill="none" xmlns="http://www.w3.org/2000/svg">
<path d="M216.667 65.0039H8.33333C3.75208 65.0039 0 61.3456 0 56.8789V8.12891C0 3.66219 3.75208 0.00391102 8.33333 0.00391102H216.667C221.248 0.00391102 225 3.66219 225 8.12891V56.8789C225 61.3456 221.248 65.0039 216.667 65.0039Z" fill="white"/>
<path d="M216.667 1.30594C220.525 1.30594 223.665 4.36704 223.665 8.12891V56.8789C223.665 60.6408 220.525 63.7019 216.667 63.7019H8.33333C4.475 63.7019 1.33542 60.6408 1.33542 56.8789V8.12891C1.33542 4.36704 4.475 1.30594 8.33333 1.30594H216.667ZM216.667 0.00391102H8.33333C3.75208 0.00391102 0 3.66219 0 8.12891V56.8789C0 61.3456 3.75208 65.0039 8.33333 65.0039H216.667C221.248 65.0039 225 61.3456 225 56.8789V8.12891C225 3.66219 221.248 0.00391102 216.667 0.00391102Z" fill="#E4E4E4"/>
<path d="M17.3917 12.2542C16.9021 12.7539 16.6188 13.5319 16.6188 14.5394V50.4762C16.6188 51.4837 16.9021 52.2617 17.3917 52.7614L17.5125 52.8711L38.1667 32.7414V32.2661L17.5125 12.1364L17.3917 12.2542Z" fill="url(#paint0_linear_40_453)"/>
<path d="M45.0437 39.4541L38.1666 32.7408V32.2655L45.052 25.5522L45.2062 25.6396L53.3604 30.1632C55.6875 31.4469 55.6875 33.5594 53.3604 34.8513L45.2062 39.3668L45.0437 39.4541Z" fill="url(#paint1_linear_40_453)"/>
<path d="M45.2062 39.3672L38.1667 32.5036L17.3917 52.7612C18.1646 53.5534 19.425 53.6489 20.8583 52.8567L45.2062 39.3672Z" fill="url(#paint2_linear_40_453)"/>
<path d="M45.2062 25.6403L20.8583 12.1508C19.425 11.3667 18.1646 11.4622 17.3917 12.2544L38.1667 32.5039L45.2062 25.6403Z" fill="url(#paint3_linear_40_453)"/>
<path d="M79.0292 16.6506C79.0292 18.0075 78.6125 19.0942 77.7917 19.9047C76.8479 20.8655 75.6188 21.3489 74.1125 21.3489C72.6729 21.3489 71.4437 20.8573 70.4354 19.8884C69.425 18.9053 68.9208 17.6988 68.9208 16.2545C68.9208 14.8103 69.425 13.6038 70.4354 12.6288C71.4437 11.6517 72.6729 11.1602 74.1125 11.1602C74.8292 11.1602 75.5125 11.3044 76.1646 11.5725C76.8146 11.8427 77.3437 12.2083 77.7271 12.6592L76.8562 13.5164C76.1875 12.7466 75.2771 12.3667 74.1125 12.3667C73.0625 12.3667 72.1521 12.7242 71.3792 13.4453C70.6146 14.1684 70.2312 15.1048 70.2312 16.2545C70.2312 17.4042 70.6146 18.3487 71.3792 19.0719C72.1521 19.7848 73.0625 20.1505 74.1125 20.1505C75.2271 20.1505 76.1646 19.7848 76.9042 19.0638C77.3917 18.5864 77.6688 17.9283 77.7417 17.0873H74.1125V15.9133H78.9542C79.0125 16.1672 79.0292 16.413 79.0292 16.6506Z" fill="#292D32" stroke="#292D32" stroke-width="0.16" stroke-miterlimit="10"/>
<path d="M86.7104 12.5802H82.1625V15.6677H86.2625V16.8418H82.1625V19.9293H86.7104V21.1257H80.875V11.3838H86.7104V12.5802Z" fill="#292D32" stroke="#292D32" stroke-width="0.16" stroke-miterlimit="10"/>
<path d="M92.1312 21.1257H90.8437V12.5802H88.0541V11.3838H94.9229V12.5802H92.1312V21.1257Z" fill="#292D32" stroke="#292D32" stroke-width="0.16" stroke-miterlimit="10"/>
<path d="M99.8938 21.1257V11.3838H101.179V21.1257H99.8938Z" fill="#292D32" stroke="#292D32" stroke-width="0.16" stroke-miterlimit="10"/>
<path d="M106.877 21.1257H105.6V12.5802H102.8V11.3838H109.677V12.5802H106.877V21.1257Z" fill="#292D32" stroke="#292D32" stroke-width="0.16" stroke-miterlimit="10"/>
<path d="M122.681 19.8722C121.696 20.8573 120.475 21.3489 119.019 21.3489C117.554 21.3489 116.333 20.8573 115.348 19.8722C114.365 18.8891 113.875 17.6825 113.875 16.2545C113.875 14.8266 114.365 13.62 115.348 12.6369C116.333 11.6517 117.554 11.1602 119.019 11.1602C120.467 11.1602 121.688 11.6517 122.673 12.645C123.665 13.6363 124.154 14.8347 124.154 16.2545C124.154 17.6825 123.665 18.8891 122.681 19.8722ZM116.3 19.0556C117.042 19.7848 117.944 20.1505 119.019 20.1505C120.085 20.1505 120.996 19.7848 121.729 19.0556C122.469 18.3264 122.844 17.39 122.844 16.2545C122.844 15.1191 122.469 14.1827 121.729 13.4534C120.996 12.7242 120.085 12.3586 119.019 12.3586C117.944 12.3586 117.042 12.7242 116.3 13.4534C115.56 14.1827 115.185 15.1191 115.185 16.2545C115.185 17.39 115.56 18.3264 116.3 19.0556Z" fill="#292D32" stroke="#292D32" stroke-width="0.16" stroke-miterlimit="10"/>
<path d="M125.96 21.1257V11.3838H127.523L132.381 18.9603H132.437L132.381 17.0875V11.3838H133.667V21.1257H132.325L127.237 13.1754H127.181L127.237 15.0563V21.1257H125.96Z" fill="#292D32" stroke="#292D32" stroke-width="0.16" stroke-miterlimit="10"/>
<path d="M113.558 35.3518C109.644 35.3518 106.446 38.2564 106.446 42.2641C106.446 46.2393 109.644 49.1744 113.558 49.1744C117.481 49.1744 120.679 46.2393 120.679 42.2641C120.679 38.2564 117.481 35.3518 113.558 35.3518ZM113.558 46.4525C111.41 46.4525 109.563 44.7239 109.563 42.2641C109.563 39.7718 111.41 38.0736 113.558 38.0736C115.706 38.0736 117.563 39.7718 117.563 42.2641C117.563 44.7239 115.706 46.4525 113.558 46.4525ZM98.0396 35.3518C94.1167 35.3518 90.9271 38.2564 90.9271 42.2641C90.9271 46.2393 94.1167 49.1744 98.0396 49.1744C101.96 49.1744 105.152 46.2393 105.152 42.2641C105.152 38.2564 101.96 35.3518 98.0396 35.3518ZM98.0396 46.4525C95.8896 46.4525 94.0354 44.7239 94.0354 42.2641C94.0354 39.7718 95.8896 38.0736 98.0396 38.0736C100.188 38.0736 102.035 39.7718 102.035 42.2641C102.035 44.7239 100.188 46.4525 98.0396 46.4525ZM79.5729 37.4704V40.4075H86.7667C86.5563 42.0488 85.9938 43.2554 85.1313 44.0963C84.0813 45.1119 82.4458 46.2393 79.5729 46.2393C75.1459 46.2393 71.6792 42.7557 71.6792 38.4393C71.6792 34.1229 75.1459 30.6393 79.5729 30.6393C81.9667 30.6393 83.7084 31.5513 84.9938 32.7335L87.1167 30.6636C85.3188 28.9899 82.9271 27.7041 79.5729 27.7041C73.5021 27.7041 68.4 32.5202 68.4 38.4393C68.4 44.3583 73.5021 49.1744 79.5729 49.1744C82.8542 49.1744 85.3188 48.1263 87.2563 46.16C89.2417 44.2243 89.8604 41.5024 89.8604 39.3046C89.8604 38.6221 89.8021 37.9944 89.6979 37.4704H79.5729ZM155.085 39.7474C154.5 38.2016 152.694 35.3518 149.015 35.3518C145.369 35.3518 142.333 38.1529 142.333 42.2641C142.333 46.1357 145.337 49.1744 149.365 49.1744C152.621 49.1744 154.5 47.2386 155.273 46.1113L152.856 44.5411C152.05 45.6908 150.952 46.4525 149.365 46.4525C147.787 46.4525 146.656 45.7477 145.931 44.3583L155.412 40.5335L155.085 39.7474ZM145.419 42.0488C145.337 39.3838 147.542 38.0188 149.121 38.0188C150.358 38.0188 151.408 38.6221 151.758 39.4854L145.419 42.0488ZM137.712 48.7539H140.829V28.4415H137.712V48.7539ZM132.608 36.8914H132.504C131.804 36.083 130.469 35.3518 128.777 35.3518C125.227 35.3518 121.981 38.3905 121.981 42.2864C121.981 46.16 125.227 49.1744 128.777 49.1744C130.469 49.1744 131.804 48.4371 132.504 47.6043H132.608V48.5955C132.608 51.2382 131.16 52.658 128.825 52.658C126.921 52.658 125.74 51.3174 125.252 50.19L122.542 51.293C123.323 53.1252 125.392 55.3799 128.825 55.3799C132.479 55.3799 135.562 53.2836 135.562 48.1832V35.7722H132.608V36.8914ZM129.044 46.4525C126.896 46.4525 125.098 44.6996 125.098 42.2864C125.098 39.851 126.896 38.0736 129.044 38.0736C131.16 38.0736 132.829 39.851 132.829 42.2864C132.829 44.6996 131.16 46.4525 129.044 46.4525ZM169.677 28.4415H162.223V48.7539H165.331V41.0575H169.677C173.129 41.0575 176.515 38.6221 176.515 34.7485C176.515 30.8769 173.121 28.4415 169.677 28.4415ZM169.758 38.2321H165.331V31.2669H169.758C172.079 31.2669 173.404 33.1458 173.404 34.7485C173.404 36.3207 172.079 38.2321 169.758 38.2321ZM188.973 35.3132C186.727 35.3132 184.392 36.28 183.431 38.423L186.19 39.5504C186.783 38.423 187.875 38.0574 189.029 38.0574C190.642 38.0574 192.277 39.0019 192.302 40.6696V40.8829C191.74 40.566 190.535 40.0968 189.054 40.0968C186.083 40.0968 183.056 41.6913 183.056 44.6671C183.056 47.3889 185.49 49.1419 188.225 49.1419C190.317 49.1419 191.471 48.2218 192.196 47.1513H192.302V48.7214H195.304V40.9296C195.304 37.3282 192.546 35.3132 188.973 35.3132ZM188.598 46.4444C187.581 46.4444 186.165 45.9529 186.165 44.7239C186.165 43.1518 187.931 42.5485 189.46 42.5485C190.829 42.5485 191.471 42.843 192.302 43.231C192.058 45.1119 190.398 46.4444 188.598 46.4444ZM206.242 35.758L202.669 44.5635H202.562L198.869 35.758H195.517L201.067 48.0633L197.9 54.9107H201.148L209.7 35.758H206.242ZM178.223 48.7539H181.34V28.4415H178.223V48.7539Z" fill="#292D32"/>
<defs>
<linearGradient id="paint0_linear_40_453" x1="36.3328" y1="50.8505" x2="9.07018" y2="22.8888" gradientUnits="userSpaceOnUse">
<stop stop-color="#00A0FF"/>
<stop offset="0.0066" stop-color="#00A1FF"/>
<stop offset="0.2601" stop-color="#00BEFF"/>
<stop offset="0.5122" stop-color="#00D2FF"/>
<stop offset="0.7604" stop-color="#00DFFF"/>
<stop offset="1" stop-color="#00E3FF"/>
</linearGradient>
<linearGradient id="paint1_linear_40_453" x1="56.3906" y1="32.5009" x2="16.0625" y2="32.5009" gradientUnits="userSpaceOnUse">
<stop stop-color="#FFE000"/>
<stop offset="0.4087" stop-color="#FFBD00"/>
<stop offset="0.7754" stop-color="#FFA500"/>
<stop offset="1" stop-color="#FF9C00"/>
</linearGradient>
<linearGradient id="paint2_linear_40_453" x1="41.3783" y1="28.7724" x2="4.40794" y2="-9.14591" gradientUnits="userSpaceOnUse">
<stop stop-color="#FF3A44"/>
<stop offset="1" stop-color="#C31162"/>
</linearGradient>
<linearGradient id="paint3_linear_40_453" x1="12.1622" y1="64.7176" x2="28.6711" y2="47.7855" gradientUnits="userSpaceOnUse">
<stop stop-color="#32A071"/>
<stop offset="0.0685" stop-color="#2DA771"/>
<stop offset="0.4762" stop-color="#15CF74"/>
<stop offset="0.8009" stop-color="#06E775"/>
<stop offset="1" stop-color="#00F076"/>
</linearGradient>
</defs>
</svg>
