<svg width="148" height="52" viewBox="0 0 148 52" fill="none" xmlns="http://www.w3.org/2000/svg">
<path d="M17.9736 27.7064L6.72569 10.5713H0V38.2247H6.72569V21.1673L17.9736 38.2247H24.6993V10.5713H17.9736V27.7064Z" fill="#49AFF5"/>
<path d="M117.616 17.3074C115.886 16.3897 113.945 15.9277 111.796 15.9277C109.645 15.9277 107.706 16.3876 105.976 17.3074C104.246 18.2271 102.881 19.5458 101.886 21.2657C100.888 22.9855 100.391 24.9761 100.391 27.2335C100.391 29.5182 100.881 31.5152 101.865 33.2203C102.848 34.9275 104.198 36.2399 105.915 37.1597C107.632 38.0794 109.567 38.5393 111.716 38.5393C113.865 38.5393 115.813 38.0794 117.555 37.1597C119.299 36.2399 120.675 34.9212 121.685 33.2014C122.696 31.4816 123.199 29.493 123.199 27.2335C123.199 24.9761 122.7 22.9855 121.704 21.2657C120.708 19.5458 119.345 18.2271 117.616 17.3074ZM114.999 31.2905C114.096 32.2355 112.999 32.71 111.716 32.71C110.431 32.71 109.362 32.2376 108.511 31.2905C107.657 30.3456 107.232 28.9932 107.232 27.2335C107.232 25.4486 107.664 24.0879 108.529 23.1577C109.393 22.2253 110.481 21.7591 111.794 21.7591C113.079 21.7591 114.161 22.2316 115.039 23.1786C115.918 24.1236 116.356 25.4759 116.356 27.2356C116.356 28.9932 115.905 30.3456 114.999 31.2905Z" fill="#49AFF5"/>
<path d="M51.2588 38.2244H57.9845V28.0693C56.1081 29.3566 53.7851 30.5976 51.2588 30.8958V38.2244Z" fill="#49AFF5"/>
<path d="M51.2588 29.6152C53.7956 29.2729 56.1605 27.8492 57.9845 26.5136V9.07617H51.2588V29.6152Z" fill="#49AFF5"/>
<path d="M76.6976 19.3548C76.0686 18.33 75.1692 17.5027 74.0035 16.8727C72.8379 16.2427 71.4793 15.9277 69.9342 15.9277C68.1248 15.9277 66.4874 16.3876 65.0178 17.3074C63.5502 18.2271 62.3887 19.5395 61.5375 21.2467C61.0344 22.2568 60.6821 23.3634 60.4767 24.5667C62.7829 22.7146 65.1729 20.8289 68.0578 19.928C70.8147 19.0671 73.9239 19.212 76.5865 20.3228C78.379 21.0704 79.9493 22.219 81.4672 23.3277C82.1025 23.7918 82.7587 24.2601 83.4212 24.7011V16.2427H76.6976V19.3548Z" fill="#49AFF5"/>
<path d="M80.719 24.3551C79.1927 23.24 77.7524 22.1859 76.0983 21.495C73.704 20.4955 70.9093 20.3674 68.4354 21.1401C65.6994 21.9948 63.3513 23.8826 61.0787 25.7095C60.8124 25.9237 60.5441 26.1337 60.2778 26.3458C60.2631 26.6229 60.2568 26.9064 60.2568 27.192C60.2568 29.4515 60.6824 31.4401 61.5336 33.1599C62.3848 34.8797 63.5463 36.2068 65.0139 37.1392C66.4815 38.0715 68.1084 38.5377 69.8904 38.5377C71.4377 38.5377 72.7941 38.2227 73.9598 37.5928C75.1255 36.9628 76.0375 36.1354 76.6937 35.1107V38.2227H83.4194V26.2198C83.3858 26.1988 83.3502 26.182 83.3166 26.161C82.4193 25.6003 81.5555 24.9682 80.719 24.3551ZM75.2995 31.2133C74.3686 32.1855 73.2344 32.6706 71.8968 32.6706C70.5592 32.6706 69.425 32.1792 68.4962 31.1944C67.5654 30.2095 67.0999 28.8782 67.0999 27.1962C67.0999 25.5163 67.5654 24.1955 68.4962 23.2379C69.4271 22.2804 70.5613 21.7995 71.8968 21.7995C73.2344 21.7995 74.3686 22.2846 75.2995 23.2568C76.2303 24.2291 76.6958 25.5562 76.6958 27.2361C76.6958 28.9139 76.2303 30.241 75.2995 31.2133Z" fill="#49AFF5"/>
<path d="M99.256 32.5124H96.8576C96.1238 32.5124 95.5996 32.3675 95.2852 32.0798C94.9707 31.7921 94.8134 31.3197 94.8134 30.6624V29.5138C92.5324 29.4907 90.2556 29.1085 88.0898 28.3945V30.5847C88.0898 33.2894 88.7712 35.2402 90.1361 36.435C91.4988 37.6298 93.4004 38.2262 95.8386 38.2262H99.2602V32.5124H99.256Z" fill="#49AFF5"/>
<path d="M88.0902 27.0434C90.2475 27.8036 92.5265 28.2172 94.8138 28.2403V21.8357H99.2186V16.2416H94.8138V10.8848H88.0902V16.2416H85.415V21.8357H88.0902V27.0434Z" fill="#49AFF5"/>
<path d="M43.7213 17.2675C42.0693 16.375 40.1824 15.9277 38.0586 15.9277C35.8824 15.9277 33.9557 16.3876 32.2763 17.3074C30.5991 18.2271 29.293 19.5395 28.3621 21.2467C27.4313 22.954 26.9658 24.9488 26.9658 27.2335C26.9658 29.5182 27.4375 31.5152 28.381 33.2203C29.3244 34.9275 30.6348 36.2399 32.3141 37.1597C33.9913 38.0794 35.9055 38.5393 38.0565 38.5393C39.8386 38.5393 41.4508 38.2117 42.8932 37.5545C44.3356 36.8993 45.5348 35.9922 46.4909 34.8372C47.1429 34.0519 47.646 33.193 48.0234 32.2733H45.9458H43.4656V31.6517L33.876 32.6071L33.8299 32.6113V33.1447H32.8613V31.3703V30.3078V28.2646V27.4708H33.8299V28.0042L34.3163 28.0525L43.4656 28.9638V28.3423H47.103H48.9144C48.9585 27.8404 48.9878 27.3511 48.9878 26.8786C48.9878 24.6738 48.5224 22.7419 47.5915 21.0872C46.6649 19.4346 45.3755 18.1599 43.7213 17.2675ZM33.6936 25.1063C33.876 23.8989 34.3561 22.9666 35.1297 22.3093C35.9033 21.6541 36.8531 21.3244 37.981 21.3244C39.1614 21.3244 40.1446 21.6667 40.9308 22.3492C41.717 23.0317 42.1112 23.9514 42.1112 25.1063H33.6936Z" fill="#49AFF5"/>
<path d="M1.16455 6.20237C1.52306 6.37876 1.9256 6.46486 2.37426 6.46486C2.82082 6.46486 3.22336 6.37666 3.58396 6.20237C3.94247 6.02808 4.22759 5.7593 4.43934 5.40022C4.65109 5.04113 4.75592 4.59806 4.75592 4.07099V0.0791016H3.93198V4.07939C3.93198 4.64216 3.7936 5.06004 3.51896 5.33092C3.24431 5.60391 2.86484 5.7383 2.38264 5.7383C1.89415 5.7383 1.51258 5.60181 1.23794 5.33092C0.963292 5.05794 0.824914 4.64216 0.824914 4.07939V0.0791016H0.000976562V4.07099C0.000976562 4.59806 0.105801 5.03903 0.313358 5.40022C0.520915 5.7593 0.803947 6.02598 1.16455 6.20237Z" fill="#49AFF5"/>
<path d="M10.5519 5.76629C10.141 5.76629 9.82857 5.6655 9.61473 5.46181C9.40088 5.26022 9.27719 5.01033 9.24783 4.71425H8.36938C8.37567 5.05863 8.47212 5.36311 8.65871 5.6256C8.8453 5.88808 9.10317 6.09387 9.43233 6.24297C9.76149 6.39206 10.1347 6.46555 10.5498 6.46555C10.9838 6.46555 11.3612 6.38156 11.6819 6.21147C12.0027 6.04138 12.2438 5.82089 12.4073 5.55001C12.5708 5.27702 12.6526 4.98724 12.6526 4.67855C12.6526 4.27958 12.5625 3.96249 12.3801 3.7315C12.1998 3.49842 11.9817 3.32623 11.728 3.21493C11.4744 3.10364 11.1389 2.99024 10.7238 2.87475C10.38 2.77815 10.1116 2.69206 9.92292 2.61646C9.73214 2.54087 9.5728 2.42957 9.44281 2.28468C9.31282 2.13979 9.24783 1.9529 9.24783 1.72191C9.24783 1.40063 9.35686 1.15284 9.57281 0.974351C9.79085 0.79586 10.0718 0.707667 10.4156 0.707667C10.7846 0.707667 11.0802 0.800057 11.3024 0.984847C11.5268 1.16964 11.6526 1.38173 11.6819 1.62532H12.5876C12.5394 1.13604 12.3255 0.743365 11.9482 0.445181C11.5708 0.149097 11.0865 0 10.4953 0C10.0844 0 9.72166 0.0734978 9.40299 0.21839C9.08641 0.363282 8.83902 0.569072 8.665 0.835757C8.48889 1.10244 8.40294 1.40693 8.40294 1.75131C8.40294 2.14399 8.491 2.45687 8.6692 2.68996C8.84741 2.92305 9.06124 3.09313 9.31283 3.20233C9.56231 3.31152 9.89776 3.42072 10.3129 3.52781C10.6504 3.61811 10.9188 3.7042 11.118 3.7819C11.3171 3.85959 11.4828 3.97509 11.6169 4.12628C11.749 4.27747 11.8161 4.47486 11.8161 4.71635C11.8161 5.02503 11.7029 5.27702 11.4765 5.47441C11.2542 5.6697 10.9439 5.76629 10.5519 5.76629Z" fill="#49AFF5"/>
<path d="M19.6815 5.72306H17.1091V3.54547H19.4111V2.86511H17.1091V0.752627H19.6815V0.0722656H16.2852V6.40342H19.6815V5.72306Z" fill="#49AFF5"/>
<path d="M88.1045 51.9005H93.2997V50.8611H89.3666V47.5306H92.8846V46.4891H89.3666V43.2553H93.2997V42.2158H88.1045V51.9005Z" fill="#49AFF5"/>
<path d="M101.796 42.2852L98.3058 51.9026H99.6371L100.413 49.7524H104.625L105.4 51.9026H106.732L103.254 42.2852H101.796ZM100.771 48.7234L102.516 43.8391L104.262 48.7234H100.771Z" fill="#49AFF5"/>
<path d="M116.812 47.0234C116.424 46.8533 115.91 46.679 115.273 46.5026C114.747 46.3556 114.338 46.2233 114.047 46.1079C113.755 45.9924 113.51 45.8223 113.313 45.6018C113.114 45.3792 113.015 45.0936 113.015 44.7408C113.015 44.2516 113.183 43.8694 113.514 43.5964C113.847 43.3234 114.275 43.1869 114.803 43.1869C115.367 43.1869 115.82 43.3276 116.162 43.6111C116.504 43.8925 116.697 44.2201 116.743 44.5896H118.129C118.055 43.84 117.728 43.2394 117.152 42.7858C116.575 42.3323 115.833 42.1055 114.927 42.1055C114.298 42.1055 113.743 42.2168 113.258 42.4394C112.774 42.6619 112.397 42.9769 112.128 43.3822C111.86 43.7896 111.726 44.2558 111.726 44.7828C111.726 45.3834 111.862 45.8622 112.135 46.2192C112.407 46.5761 112.734 46.8365 113.118 47.0024C113.501 47.1683 114.011 47.3363 114.648 47.5022C115.166 47.6408 115.577 47.771 115.881 47.8907C116.185 48.0103 116.439 48.1867 116.642 48.4177C116.845 48.6487 116.946 48.949 116.946 49.3207C116.946 49.7932 116.772 50.1795 116.426 50.4798C116.08 50.7801 115.606 50.9313 115.007 50.9313C114.378 50.9313 113.9 50.7759 113.573 50.4672C113.244 50.1564 113.057 49.7764 113.011 49.3228H111.667C111.675 49.8499 111.824 50.3139 112.111 50.7171C112.397 51.1203 112.793 51.4332 113.296 51.66C113.799 51.8867 114.369 52.0001 115.007 52.0001C115.671 52.0001 116.25 51.8699 116.739 51.6117C117.227 51.3534 117.598 51.0153 117.848 50.5995C118.097 50.1837 118.221 49.7386 118.221 49.2682C118.221 48.6571 118.082 48.1741 117.806 47.8172C117.533 47.4602 117.2 47.1956 116.812 47.0234Z" fill="#49AFF5"/>
<path d="M125.041 42.2285H123.781V51.9006H125.041V42.2285Z" fill="#49AFF5"/>
<path d="M132.147 42.2285H130.885V51.9006H135.526V50.8738H132.147V42.2285Z" fill="#49AFF5"/>
<path d="M143.549 47.1275L141.167 42.2285H139.767L142.926 48.251V51.9006H144.186V48.251L147.331 42.2285H145.933L143.549 47.1275Z" fill="#49AFF5"/>
<path d="M145.03 18.5088C143.495 16.8415 141.445 16.0078 138.875 16.0078C137.432 16.0078 136.134 16.2892 134.981 16.8541C133.828 17.4189 132.91 18.1875 132.229 19.1576V16.243H125.503V24.1323C126.74 23.0634 128.094 22.129 129.535 21.3541C129.805 21.2092 130.138 21.2638 130.356 21.4801C130.646 21.7699 130.566 22.2508 130.203 22.444C128.488 23.3553 126.901 24.504 125.503 25.8521V38.2204H132.229V26.2889C132.229 24.8189 132.608 23.6766 133.369 22.8618C134.128 22.0471 135.151 21.6397 136.436 21.6397C137.722 21.6397 138.743 22.0471 139.504 22.8618C140.263 23.6766 140.644 24.8189 140.644 26.2889V38.2246H147.33V25.3838C147.33 22.4671 146.565 20.1761 145.03 18.5088Z" fill="#49AFF5"/>
<path d="M129.09 22.6389L129.763 22.2085C129.864 22.1434 129.893 22.0111 129.828 21.9103C129.763 21.8095 129.631 21.7801 129.53 21.8452L128.857 22.2757C128.757 22.3408 128.727 22.473 128.792 22.5738C128.855 22.6725 128.989 22.7019 129.09 22.6389Z" fill="#49AFF5"/>
</svg>
